<svg width="24" height="28" viewBox="0 0 24 28" fill="none" xmlns="http://www.w3.org/2000/svg">
<g clip-path="url(#clip0_1268_880)">
<path d="M21.4286 1.71436H2.57143C1.88944 1.71436 1.23539 1.98527 0.753154 2.46751C0.270918 2.94975 0 3.6038 0 4.28578L0 23.1429C0 23.8249 0.270918 24.479 0.753154 24.9612C1.23539 25.4434 1.88944 25.7144 2.57143 25.7144H9.92411V17.5549H6.54911V13.7144H9.92411V10.7872C9.92411 7.45775 11.9063 5.61864 14.9421 5.61864C16.3961 5.61864 17.9164 5.87793 17.9164 5.87793V9.14578H16.2413C14.5907 9.14578 14.0759 10.1701 14.0759 11.2206V13.7144H17.7605L17.1712 17.5549H14.0759V25.7144H21.4286C22.1106 25.7144 22.7646 25.4434 23.2468 24.9612C23.7291 24.479 24 23.8249 24 23.1429V4.28578C24 3.6038 23.7291 2.94975 23.2468 2.46751C22.7646 1.98527 22.1106 1.71436 21.4286 1.71436Z" fill="#111827"/>
</g>
<defs>
<clipPath id="clip0_1268_880">
<rect width="24" height="27.4286" fill="white"/>
</clipPath>
</defs>
</svg>
