<svg width="24" height="28" viewBox="0 0 24 28" fill="none" xmlns="http://www.w3.org/2000/svg">
<g clip-path="url(#clip0_1268_882)">
<path d="M12.0054 7.55374C8.59822 7.55374 5.85 10.302 5.85 13.7091C5.85 17.1162 8.59822 19.8645 12.0054 19.8645C15.4125 19.8645 18.1607 17.1162 18.1607 13.7091C18.1607 10.302 15.4125 7.55374 12.0054 7.55374ZM12.0054 17.7109C9.80357 17.7109 8.00357 15.9162 8.00357 13.7091C8.00357 11.502 9.79821 9.70731 12.0054 9.70731C14.2125 9.70731 16.0071 11.502 16.0071 13.7091C16.0071 15.9162 14.2071 17.7109 12.0054 17.7109ZM19.8482 7.30195C19.8482 8.10017 19.2053 8.73767 18.4125 8.73767C17.6143 8.73767 16.9768 8.09481 16.9768 7.30195C16.9768 6.5091 17.6196 5.86624 18.4125 5.86624C19.2053 5.86624 19.8482 6.5091 19.8482 7.30195ZM23.925 8.7591C23.8339 6.83588 23.3946 5.13231 21.9857 3.72874C20.5821 2.32517 18.8786 1.88588 16.9553 1.78945C14.9732 1.67695 9.03214 1.67695 7.05 1.78945C5.13215 1.88052 3.42858 2.31981 2.01965 3.72338C0.610726 5.12695 0.176798 6.83052 0.0803695 8.75374C-0.0321304 10.7359 -0.0321304 16.677 0.0803695 18.6591C0.171441 20.5823 0.610726 22.2859 2.01965 23.6895C3.42858 25.093 5.12679 25.5323 7.05 25.6287C9.03214 25.7412 14.9732 25.7412 16.9553 25.6287C18.8786 25.5377 20.5821 25.0984 21.9857 23.6895C23.3893 22.2859 23.8286 20.5823 23.925 18.6591C24.0375 16.677 24.0375 10.7412 23.925 8.7591ZM21.3643 20.7859C20.9464 21.8359 20.1375 22.6448 19.0821 23.068C17.5018 23.6948 13.7518 23.5502 12.0054 23.5502C10.2589 23.5502 6.50358 23.6895 4.92858 23.068C3.87858 22.6502 3.06965 21.8412 2.64644 20.7859C2.01965 19.2055 2.1643 15.4555 2.1643 13.7091C2.1643 11.9627 2.02501 8.20731 2.64644 6.63231C3.06429 5.58231 3.87322 4.77338 4.92858 4.35017C6.50893 3.72338 10.2589 3.86802 12.0054 3.86802C13.7518 3.86802 17.5071 3.72874 19.0821 4.35017C20.1321 4.76802 20.9411 5.57695 21.3643 6.63231C21.9911 8.21267 21.8464 11.9627 21.8464 13.7091C21.8464 15.4555 21.9911 19.2109 21.3643 20.7859Z" fill="#111827"/>
</g>
<defs>
<clipPath id="clip0_1268_882">
<rect width="24" height="27.4286" fill="white"/>
</clipPath>
</defs>
</svg>
