<svg width="24" height="22" viewBox="0 0 24 22" fill="none" xmlns="http://www.w3.org/2000/svg">
<path d="M22.9023 5.21781C22.6406 4.2324 21.8695 3.45631 20.8905 3.19294C19.1159 2.71436 12 2.71436 12 2.71436C12 2.71436 4.88416 2.71436 3.10953 3.19294C2.13049 3.45636 1.3594 4.2324 1.09769 5.21781C0.622192 7.00394 0.622192 10.7305 0.622192 10.7305C0.622192 10.7305 0.622192 14.4571 1.09769 16.2432C1.3594 17.2286 2.13049 17.9724 3.10953 18.2358C4.88416 18.7144 12 18.7144 12 18.7144C12 18.7144 19.1158 18.7144 20.8905 18.2358C21.8695 17.9724 22.6406 17.2286 22.9023 16.2432C23.3778 14.4571 23.3778 10.7305 23.3778 10.7305C23.3778 10.7305 23.3778 7.00394 22.9023 5.21781ZM9.6727 14.114V7.34706L15.6202 10.7306L9.6727 14.114Z" fill="#111827"/>
</svg>
